Coordinates
version=1
nRows=11
nColumns=40
inDegrees=yes

Units are S.I. units (second, meters, Newtons, ...)
Angles are in degrees.

endheader
time	pelvis_tilt	pelvis_list	pelvis_rotation	pelvis_tx	pelvis_ty	pelvis_tz	hip_flexion_r	hip_adduction_r	hip_rotation_r	knee_angle_r	knee_angle_r_beta	ankle_angle_r	subtalar_angle_r	mtp_angle_r	hip_flexion_l	hip_adduction_l	hip_rotation_l	knee_angle_l	knee_angle_l_beta	ankle_angle_l	subtalar_angle_l	mtp_angle_l	lumbar_extension	lumbar_bending	lumbar_rotation	arm_flex_r	arm_add_r	arm_rot_r	elbow_flex_r	pro_sup_r	wrist_flex_r	wrist_dev_r	arm_flex_l	arm_add_l	arm_rot_l	elbow_flex_l	pro_sup_l	wrist_flex_l	wrist_dev_l
     40.07000000	     -4.81632792	     -4.46438529	     -2.77465924	      0.93686299	      0.92130649	      0.55220318	     15.33858428	      4.40484100	     -7.26710607	     24.52206024	     24.52206024	     15.50878391	     -3.46536176	     -1.17931117	     22.14036773	    -14.31158299	      1.55662075	     60.55898294	     60.55898294	      2.39758998	    -18.40596486	      2.87340677	     -8.83590106	      5.46024063	      1.83490731	      5.17157602	    -12.07675997	    -10.01822784	     24.10487737	     46.64624197	      0.00000000	      0.00000000	     19.73906075	     -9.15843791	    -10.20992137	     44.69703578	     46.08546800	      0.00000000	      0.00000000
     40.08900000	     -4.30184127	     -4.24303598	     -2.00098109	      0.93595458	      0.91922744	      0.55281514	     15.44176246	      4.19449614	     -6.96100048	     26.38564658	     26.38564658	     16.30009172	     -5.40767783	     -1.43707358	     23.81852603	    -13.98274537	      2.16155770	     63.43302450	     63.43302450	      2.42654730	    -18.79334818	      4.16508619	     -9.04185241	      5.26876991	      1.53416679	      7.19761891	    -12.04296237	     -9.93084665	     24.59794858	     46.63951715	      0.00000000	      0.00000000	     18.28419090	     -8.68081373	     -9.65310564	     42.30438763	     46.00537884	      0.00000000	      0.00000000
     40.10800000	     -3.67775718	     -4.06613530	     -1.19236713	      0.93496066	      0.91724766	      0.55328005	     15.31272637	      4.05283601	     -6.72465833	     28.07012969	     28.07012969	     17.18208989	     -7.21142468	     -1.17517347	     25.50524256	    -13.47862535	      2.99492893	     66.40443166	     66.40443166	      4.24992704	    -18.87482486	     10.25800911	     -9.36644717	      5.15174564	      1.83903121	      9.07554465	    -12.27091432	     -9.72361965	     24.79129704	     46.63840407	      0.00000000	      0.00000000	     17.85425915	     -8.05265926	     -7.87283779	     37.84756956	     45.82692746	      0.00000000	      0.00000000
     40.12700000	     -3.12383747	     -3.92947834	     -0.36796861	      0.93387661	      0.91504884	      0.55379116	     15.20732340	      3.97666151	     -6.57229307	     29.65367621	     29.65367621	     17.93468592	     -8.93453484	     -1.22060573	     27.00703524	    -13.24929625	      3.49615517	     68.66067384	     68.66067384	      4.66728812	    -19.11604281	     11.54884787	     -9.67252274	      5.06845493	      1.47347503	     11.10035762	    -12.28991544	     -9.78550097	     25.95018136	     46.61111238	      0.00000000	      0.00000000	     16.19768715	     -7.71706582	     -7.24174531	     35.84856243	     45.73621774	      0.00000000	      0.00000000
     40.14600000	     -2.55707660	     -3.82296260	      0.48026203	      0.93263709	      0.91305037	      0.55409251	     14.97079223	      3.97464700	     -6.39250827	     31.01302484	     31.01302484	     18.75337158	    -10.57975331	     -0.67060511	     28.47743431	    -12.92059432	      4.11412839	     70.58910248	     70.58910248	      6.30111331	    -19.19189716	     15.92913117	     -9.99706073	      5.02933975	      1.57198212	     12.95039457	    -12.49952889	     -9.80136662	     27.08445788	     46.57645405	      0.00000000	      0.00000000	     15.22868892	     -7.27236475	     -5.61743628	     32.45193679	     45.54385050	      0.00000000	      0.00000000
     40.16500000	     -2.12713476	     -3.71450082	      1.31640885	      0.93126332	      0.91107524	      0.55427662	     14.79466713	      3.92620966	     -6.42630868	     32.19351719	     32.19351719	     19.40020069	    -11.87625508	     -0.53228844	     29.82997414	    -12.77237349	      4.43252740	     71.70001928	     71.70001928	      7.11133247	    -19.31836703	     17.01779740	    -10.22680521	      4.94555780	      1.41497079	     14.95335937	    -12.64486896	     -9.90651893	     28.37213347	     46.54354300	      0.00000000	      0.00000000	     13.54578409	     -6.95290628	     -4.90072188	     30.65494032	     45.43386869	      0.00000000	      0.00000000
     40.18400000	     -1.76900148	     -3.61621797	      2.12964066	      0.92972983	      0.90938706	      0.55417106	     14.57823204	      3.89938946	     -6.44173899	     33.14510905	     33.14510905	     20.19246363	    -12.95042844	      0.19576983	     31.14454221	    -12.57539395	      4.72132332	     72.25428181	     72.25428181	      8.71452935	    -19.38291864	     19.80984613	    -10.38783522	      4.92622520	      1.65441035	     16.67310367	    -13.00204401	    -10.04262626	     29.95323554	     46.48861525	      0.00000000	      0.00000000	     12.35616243	     -6.67303479	     -3.15536039	     28.25366030	     45.20249912	      0.00000000	      0.00000000
     40.20300000	     -1.43641016	     -3.56693305	      2.89557659	      0.92809653	      0.90821741	      0.55390079	     14.19399088	      3.88274677	     -6.63265801	     33.69238907	     33.69238907	     20.63963119	    -13.69561849	      0.17524553	     32.17792350	    -12.57145461	      4.75304885	     71.87856938	     71.87856938	      9.53611042	    -19.45295067	     19.80909329	    -10.61022568	      4.92114009	      1.87682337	     18.72554147	    -13.41669311	    -10.15339844	     31.06466332	     46.46581160	      0.00000000	      0.00000000	     10.66933119	     -6.35955387	     -2.92060363	     27.30973839	     45.14354749	      0.00000000	      0.00000000
     40.22200000	     -1.26409795	     -3.47776009	      3.70020477	      0.92634224	      0.90757284	      0.55330113	     13.78709959	      3.85200190	     -6.77213347	     33.85199287	     33.85199287	     20.96297113	    -14.58531440	      0.48436275	     33.17613044	    -12.44486393	      4.73637329	     70.72866437	     70.72866437	     10.57261284	    -19.49211287	     20.38129913	    -10.62940426	      4.88014767	      1.31290559	     21.03703284	    -13.36520081	    -10.28319374	     32.86384214	     46.41305146	      0.00000000	      0.00000000	      8.72028615	     -6.42257350	     -2.42219559	     25.94783389	     45.04298299	      0.00000000	      0.00000000
     40.24100000	     -1.17517859	     -3.38188424	      4.40529978	      0.92441902	      0.90750190	      0.55241920	     13.36129322	      3.74539241	     -7.02165997	     33.81798737	     33.81798737	     21.47621805	    -14.86439732	      1.43326437	     34.00751851	    -12.25286883	      4.60399361	     68.84217773	     68.84217773	     11.82323497	    -19.49942313	     21.64175703	    -10.67585608	      4.82039581	      1.70804958	     22.47491351	    -14.00958380	    -10.29497243	     35.92423292	     46.26859925	      0.00000000	      0.00000000	      7.01302286	     -6.52138932	     -0.00366084	     25.32416046	     44.67020997	      0.00000000	      0.00000000
     40.26000000	     -1.30468208	     -3.26782026	      5.04977801	      0.92231019	      0.90784895	      0.55123307	     13.01583910	      3.56577949	     -7.33736117	     33.44349065	     33.44349065	     21.55702190	    -15.07155526	      1.52647523	     34.74712241	    -11.97580618	      4.34073108	     66.12876114	     66.12876114	     12.51999014	    -19.49173710	     21.60126404	    -10.46915911	      4.70155672	      2.25478969	     24.59211956	    -14.82454791	    -10.43233458	     36.89439452	     46.25370118	      0.00000000	      0.00000000	      5.49162621	     -6.33993168	      0.09700830	     24.71540061	     44.63061116	      0.00000000	      0.00000000
